<svg xmlns="http://www.w3.org/2000/svg" viewBox="0 0 426.72 182.07"><defs><style>.cls-1{fill:#231f20;}</style></defs><g id="Layer_2" data-name="Layer 2"><g id="Layer_1-2" data-name="Layer 1"><path d="M144.85,40.25a1.11,1.11,0,0,0-.71-.18,4.42,4.42,0,0,0-1.13.66,37.24,37.24,0,0,0-3.86,3.6C137.37,46.15,135,48.75,132,52s-6.84,7.66-11.57,13S110,76.81,103.19,84.39,88.33,100.94,79,111.29l-3.48,3.86V110c0-.16,0-.44-.07-.85-.06-.59-.08-1-.08-1.24a34.16,34.16,0,0,1,2-11.27C78.57,93,80,89.28,81.47,85.52s2.83-7.51,4-11.43A39,39,0,0,0,87.3,62.43V59A6.25,6.25,0,0,0,87,56.86a1.74,1.74,0,0,0-.7-.89A3,3,0,0,0,85,55.65a52.39,52.39,0,0,0-4.56,5.44c-2.08,2.78-4.35,6-6.75,9.43s-5,7.23-7.53,11.1S61.08,89.28,58.62,93s-4.76,7.21-6.89,10.34-4,5.77-5.51,7.77a43.28,43.28,0,0,1-7.42,7,62.15,62.15,0,0,1-9.19,5.72,56.86,56.86,0,0,1-10.07,4,37,37,0,0,1-10,1.49,8.43,8.43,0,0,1-5.35-1.55,14,14,0,0,1-2.62-3l-.53.67c-1,1.32-1,1.85-1,1.85a3.79,3.79,0,0,0,1.19,3.14,9.43,9.43,0,0,0,3.71,2,22,22,0,0,0,4.94.83c1.78.09,3.22.14,4.3.14A35.51,35.51,0,0,0,27.37,131a45.52,45.52,0,0,0,11.23-6.51,67,67,0,0,0,9.72-9.51,129.06,129.06,0,0,0,8.53-11.4c2.65-4,5.25-8.07,7.73-12.18s4.93-8,7.32-11.59a6.39,6.39,0,0,1,1.27-1.42c.46-.41.78-.71,1-.89L77.55,74v7.1l-.1.3c-2.38,7.13-4.66,14.23-6.78,21.11a70.17,70.17,0,0,0-3.13,20.85c0,1.32,0,2.46.14,3.39a3.8,3.8,0,0,0,.46,1.61A1.43,1.43,0,0,0,69,129a8.67,8.67,0,0,0,2.85.34,4.33,4.33,0,0,0,3.3-1.95,32.89,32.89,0,0,0,3.73-5.91c1.16-2.34,2.25-4.69,3.23-7a20.48,20.48,0,0,1,3.51-5.87c1.09-1.19,2.78-3.06,5.07-5.59s4.91-5.42,7.86-8.61l9.26-10.08Q112.63,79,117,74.23l16.55-18V63.8l-.21.42q-3.58,7.17-7.62,15.31c-2.67,5.39-5.18,11-7.48,16.68a139.84,139.84,0,0,0-5.75,17.31,67.84,67.84,0,0,0-2.25,17l0,.36a18.12,18.12,0,0,0,.11,7.94,11.18,11.18,0,0,0,2.82,5.21,7.28,7.28,0,0,0,4.37,2.06,7.4,7.4,0,0,0,3-.26c-1-1-1.84-1.81-2.49-2.36a13.43,13.43,0,0,1-2.81-3.19,9.29,9.29,0,0,1-1.16-4c-.11-1.29-.16-3.28-.16-6.06a54.43,54.43,0,0,1,2.41-16.05,109.21,109.21,0,0,1,5.93-15.15c2.36-4.92,5-9.77,7.7-14.42s5.26-9.18,7.57-13.65a107,107,0,0,0,5.72-13,36.11,36.11,0,0,0,2.2-12.11c0-.62,0-1.41.08-2.35a8.6,8.6,0,0,0-.12-2.06A2.52,2.52,0,0,0,144.85,40.25Z"/><path class="cls-1" d="M145.43,45.84A36.11,36.11,0,0,1,143.23,58a107,107,0,0,1-5.72,13c-2.31,4.47-4.86,9.06-7.57,13.65s-5.34,9.5-7.7,14.42a109.21,109.21,0,0,0-5.93,15.15,54.43,54.43,0,0,0-2.41,16.05c0,2.78,0,4.77.16,6.06a9.29,9.29,0,0,0,1.16,4,13.43,13.43,0,0,0,2.81,3.19c.65.55,1.48,1.35,2.49,2.36a7.4,7.4,0,0,1-3,.26,7.28,7.28,0,0,1-4.37-2.06,11.18,11.18,0,0,1-2.82-5.21,18.12,18.12,0,0,1-.11-7.94l0-.36a67.84,67.84,0,0,1,2.25-17,139.84,139.84,0,0,1,5.75-17.31c2.3-5.68,4.81-11.29,7.48-16.68S131,69,133.38,64.22l.21-.42V56.25L117,74.23q-4.41,4.78-9.26,10.09L98.52,94.4Q94.1,99.19,90.66,103c-2.29,2.53-4,4.4-5.07,5.59a20.48,20.48,0,0,0-3.51,5.87c-1,2.3-2.07,4.65-3.23,7a32.89,32.89,0,0,1-3.73,5.91,4.33,4.33,0,0,1-3.3,1.95A8.67,8.67,0,0,1,69,129a1.43,1.43,0,0,1-.83-.58,3.8,3.8,0,0,1-.46-1.61c-.09-.93-.14-2.07-.14-3.39a70.17,70.17,0,0,1,3.13-20.85c2.12-6.88,4.4-14,6.78-21.11l.1-.3V74l-3.41,3.42c-.19.18-.51.48-1,.89a6.39,6.39,0,0,0-1.27,1.42c-2.39,3.58-4.85,7.48-7.32,11.59s-5.08,8.2-7.73,12.18a129.06,129.06,0,0,1-8.53,11.4,67,67,0,0,1-9.72,9.51A45.52,45.52,0,0,1,27.37,131a35.51,35.51,0,0,1-13.23,2.39c-1.08,0-2.52,0-4.3-.14a22,22,0,0,1-4.94-.83,9.43,9.43,0,0,1-3.71-2A3.79,3.79,0,0,1,0,127.28s0-.53,1-1.85l.53-.67a14,14,0,0,0,2.62,3,8.43,8.43,0,0,0,5.35,1.55,37,37,0,0,0,10-1.49,56.86,56.86,0,0,0,10.07-4,62.15,62.15,0,0,0,9.19-5.72,43.28,43.28,0,0,0,7.42-7c1.5-2,3.3-4.54,5.51-7.77S56.18,96.77,58.62,93s5-7.6,7.54-11.42,5.11-7.61,7.53-11.1,4.67-6.65,6.75-9.43A52.39,52.39,0,0,1,85,55.65a3,3,0,0,1,1.28.32,1.74,1.74,0,0,1,.7.89A6.25,6.25,0,0,1,87.3,59v3.44a39,39,0,0,1-1.78,11.66c-1.22,3.92-2.59,7.77-4,11.43S78.57,93,77.33,96.59a34.16,34.16,0,0,0-2,11.27c0,.24,0,.65.08,1.24,0,.41.07.69.07.85v5.2L79,111.29c9.35-10.35,17.5-19.4,24.21-26.9s12.54-14,17.27-19.36,8.59-9.66,11.57-13,5.34-5.89,7.12-7.71a37.24,37.24,0,0,1,3.86-3.6,4.42,4.42,0,0,1,1.13-.66,1.11,1.11,0,0,1,.71.18,2.52,2.52,0,0,1,.54,1.18,8.6,8.6,0,0,1,.12,2.06C145.45,44.43,145.43,45.22,145.43,45.84Z"/><path d="M145.27,181.13a5.14,5.14,0,0,0,2.79.94,19.48,19.48,0,0,0,3.09-.34c.76-.14,1-.35,1-.39l0-.11,19.54-48.69.92-.28c1-.29,1.84-.59,2.67-.93.66-.26,1.34-.57,2.15-1l.54-.26.61.08a29.72,29.72,0,0,0,9.16-.17A45.86,45.86,0,0,0,200,126.08a57.4,57.4,0,0,0,20.85-17.32,50.3,50.3,0,0,0,6.39-11.56,33.16,33.16,0,0,0,2.33-12.06c0-4.4-1-5.9-1.55-6.4-.76-.67-2.48-1.46-6.31-1.46a19.32,19.32,0,0,0-7.42,1.85,61.06,61.06,0,0,0-9.18,5.07,118,118,0,0,0-9.7,7.2c-3.27,2.68-6.37,5.48-9.19,8.31s-5.44,5.66-7.73,8.39a63.11,63.11,0,0,0-5.22,7c-.71,1.5-1.76,3.73-3.17,6.7-.91,1.91-1.9,4-2.94,6.22l-.79,1.68-1.73-.66a7.18,7.18,0,0,1-3.28-2.42,12.17,12.17,0,0,1-2.11-7.4,18.16,18.16,0,0,1,1.76-7.88c1.08-2.25,2.27-4.47,3.53-6.59s2.35-4.11,3.36-6.14a12.42,12.42,0,0,0,1.35-5.1,11.45,11.45,0,0,0-6-4.66,18.19,18.19,0,0,0-9-.46,31,31,0,0,0-10.37,4.15,46.28,46.28,0,0,0-10.1,8.39,55.7,55.7,0,0,0-8.29,12,49,49,0,0,0-4.86,14.91,7.66,7.66,0,0,0,2.27,5.41,7.13,7.13,0,0,0,5.3,2.31,14.94,14.94,0,0,0,6.13-1.33,28.34,28.34,0,0,0,5.87-3.49,46.7,46.7,0,0,0,5.3-4.8c1.75-1.85,3.36-3.61,4.8-5.25l3.51-4v5.29a13.55,13.55,0,0,0,.71,4.23,13,13,0,0,0,2,3.82,10,10,0,0,0,3,2.62,6.71,6.71,0,0,0,2.26.78l2.56.46-1.1,2.36-3.63,7.8q-2.91,6.27-5.6,12t-4.78,10.3c-1.42,3.09-2.39,5.25-3,6.6l0,.1s-.11.23-.36.92c-.2.53-.39,1.09-.58,1.67s-.41,1.2-.62,1.77l-.35,1c0,.14,0,.31-.08.52s0,.27-.05.34A2,2,0,0,0,145.27,181.13Zm33.82-63c0-.7.23-1.26,1.7-3.38.93-1.35,2-2.86,3.26-4.48s2.53-3.31,3.83-5,2.38-2.95,3.31-4a39.46,39.46,0,0,1,7.89-7.8,53.22,53.22,0,0,1,9.4-5.74,29.81,29.81,0,0,1,8.67-2.72c3.19-.4,5.44.35,6.69,2.22s1,4.52-.75,8.17c-1.49,3.14-4.56,7.16-9.37,12.29-4.27,6-9.05,10.14-14.23,12.31a47.84,47.84,0,0,1-18.4,3.22h-2Zm-22.38-9.35h0a47.21,47.21,0,0,1-7.34,9.21,57.9,57.9,0,0,1-9.29,7.43,31,31,0,0,1-9.13,4.22l-.47.11-.48-.12a4,4,0,0,1-3.38-3.78c-.05-1-.08-1.94-.08-2.79a22.73,22.73,0,0,1,2.86-11,33.1,33.1,0,0,1,7.24-9,34.38,34.38,0,0,1,10-6.1,29.63,29.63,0,0,1,11.05-2.24h2v2c0,.15,0,.4.07.74a12,12,0,0,1,.08,1.2A19.67,19.67,0,0,1,156.71,108.82Z"/><path d="M423.44,2.67c-5.83-5.46-21.42-1.2-26.93.9a66.35,66.35,0,0,0-14.84,8.92,103.66,103.66,0,0,0-13,12.31c-2.28,2.54-4.57,5.21-6.81,7.93l-.69.83-1.07-.12C180.73,14,20.19,36.23,19,36.5,11,38.65,5.09,43,4.78,45.57c-.1.85.6,1.69,2.07,2.51,7.49,4.11,30.59.91,38.75-1.6,64.69-19.87,154.79-19.55,219-15.79l5.08.3h0l.81.05c34.16,2.16,63.93,5.4,82.88,7.73l3.36.41-2,2.74c-5,6.86-9.66,13.59-13.94,20a264.39,264.39,0,0,0-14.15,23.79,175,175,0,0,0-10.7,24.8,131.31,131.31,0,0,0-6,26.64,20.85,20.85,0,0,0,2.47,9.88,28.3,28.3,0,0,0,6.54,8.16,31.39,31.39,0,0,0,9.13,5.43c3.54,1.37,18.47,6,26.13,5.32,34.07-3,47.44-18.6,56.81-35h0c4.08-7.15,1.88-8.58,1-9.12-1.25-.81-3.68,1.57-8.24,6.18a163.09,163.09,0,0,1-25.13,21.45c-7.53,5.19-41.72,20.74-59.11-4.16-4-5.75,5.78-43.48,8-48.83,3.06-7.38,13.7-25.33,18.8-33.3.73-1.15,1.63-2.7,2.68-4.49,2.68-4.58,6.35-10.86,11.45-18l.7-1,1.18.16c14.1,1.83,22.49,3.18,22.57,3.19l.7.14c5.54,1.19,14.83,3.17,22.27.56,4-1.4,15.08-11.77,16.27-15.2C425.92,23.26,429.25,8.11,423.44,2.67ZM416,25.22c-1.6,5.69-4.55,9.73-8.31,11.37a21.11,21.11,0,0,1-8.68,1.94,39.85,39.85,0,0,1-7.84-1c-1.87-.37-4-.79-6.41-1.1-5-.66-10.29-1.3-15.61-1.92l-3.7-.43,2.4-2.85a140.09,140.09,0,0,1,19.56-19.14c7.51-6,15.1-9,20.82-8.17A9.54,9.54,0,0,1,415,7.78C417.47,11.36,417.92,18.53,416,25.22Z"/><path d="M230.37,119.26a25.56,25.56,0,0,1,3.25-5.84l2.5-3.33,1,4a24.45,24.45,0,0,0,3.66,7.95,28.43,28.43,0,0,0,6.07,6.35,27.92,27.92,0,0,0,7.67,4.11,23.11,23.11,0,0,0,14.54.55l1.53-.41.75-.21.7.35A12.77,12.77,0,0,0,277.9,134a21.93,21.93,0,0,0,11.1-3.1,37.69,37.69,0,0,0,9.87-8.23,42.73,42.73,0,0,0,6.93-11.14,29.32,29.32,0,0,0,2.53-11.39,35.22,35.22,0,0,0-.57-6.16,17.31,17.31,0,0,0-1.94-5.49,10.82,10.82,0,0,0-3.54-3.79,10,10,0,0,0-5.47-1.39,2.79,2.79,0,0,0-.42.12c-.3.1-.56.17-.8.23a96,96,0,0,0-16.13,15.79,87.11,87.11,0,0,0-11.82,19.35c0,.47,0,1.18-.07,2.11-.05,1.21-.07,2-.07,2.39l.07,2.65-2.22-.17q-1.39-.12-2.79-.27a33.21,33.21,0,0,1-8.74-2.15,17.16,17.16,0,0,1-6.67-4.66,12,12,0,0,1-2.72-8.1,10.24,10.24,0,0,1,.93-5,6.21,6.21,0,0,1,2.94-2.64c1-.43,2.1-.87,3.36-1.32a12.94,12.94,0,0,0,3.49-2.12q1.35-1.2,4-3.42c1.69-1.45,3.48-3.14,5.32-5s3.65-3.89,5.35-5.93a29.39,29.39,0,0,0,3.85-5.8,9.74,9.74,0,0,0,1.15-4.69,3.32,3.32,0,0,0-1.48-2.51,14.81,14.81,0,0,0-4.19.71,44.62,44.62,0,0,0-4.49,1.78c-1.54.72-3.1,1.37-4.64,1.94a16,16,0,0,1-5.47.94h-2v-6l15.84-36.61V32.08l-2.61,2.15a10.52,10.52,0,0,0-3.11,3.9l-27.8,60.1-.18.22c-1.31,1.51-3,3.46-4.91,5.79s-3.87,4.88-5.71,7.56a54.39,54.39,0,0,0-4.69,8.15A17,17,0,0,0,217.5,127c0,2,.4,2.5.4,2.5s.49.43,2.53.43a6.23,6.23,0,0,0,4.23-1.31,14.25,14.25,0,0,0,3.13-3.93A47,47,0,0,0,230.37,119.26Zm46.55-5.69a68.65,68.65,0,0,1,4.23-9.39,57.89,57.89,0,0,1,5.34-8.27c2.11-2.7,4.05-4.21,5.93-4.61a8.11,8.11,0,0,1,5.82.51,7.53,7.53,0,0,1,3.13,3.34,13.32,13.32,0,0,1,1.16,4.23,37.25,37.25,0,0,1,.23,3.88,19.89,19.89,0,0,1-1.81,8,27.59,27.59,0,0,1-4.75,7.34,28,28,0,0,1-6.77,5.47c-.45.26-.91.49-1.37.71l-.27.12-.3.05c-1.92.27-4.11.51-6.52.72-.48,0-1,.08-1.47.1l-1.18.08-.43-.19-.21-.08a4.19,4.19,0,0,1-2.53-4.07A24.36,24.36,0,0,1,276.92,113.57ZM246.67,92.21a7.5,7.5,0,0,1,2.53-5.3,26.51,26.51,0,0,1,5-3.88h0a36.53,36.53,0,0,1,5.7-2.85A13.86,13.86,0,0,1,264.66,79h2v2A8.2,8.2,0,0,1,264,86.89a24.42,24.42,0,0,1-5.28,4,45.81,45.81,0,0,1-5.63,2.73c-1.72.69-2.92,1.18-3.61,1.48l-2.79,1.19Z"/></g></g></svg>